<?xml version="1.0" encoding="UTF-8" standalone="no"?>
<!-- Created with Inkscape (http://www.inkscape.org/) -->

<svg
   width="186.56184mm"
   height="64.735107mm"
   viewBox="0 0 186.56184 64.735107"
   version="1.1"
   id="svg4147"
   xml:space="preserve"
   inkscape:version="1.2.2 (732a01da63, 2022-12-09)"
   sodipodi:docname="amenote.svg"
   xmlns:inkscape="http://www.inkscape.org/namespaces/inkscape"
   xmlns:sodipodi="http://sodipodi.sourceforge.net/DTD/sodipodi-0.dtd"
   xmlns="http://www.w3.org/2000/svg"
   xmlns:svg="http://www.w3.org/2000/svg"><sodipodi:namedview
     id="namedview4149"
     pagecolor="#ffffff"
     bordercolor="#000000"
     borderopacity="0.25"
     inkscape:showpageshadow="2"
     inkscape:pageopacity="0.0"
     inkscape:pagecheckerboard="0"
     inkscape:deskcolor="#d1d1d1"
     inkscape:document-units="mm"
     showgrid="false"
     inkscape:zoom="0.1866337"
     inkscape:cx="-34.82758"
     inkscape:cy="101.80369"
     inkscape:window-width="1412"
     inkscape:window-height="1041"
     inkscape:window-x="-2"
     inkscape:window-y="-3"
     inkscape:window-maximized="0"
     inkscape:current-layer="layer1" /><defs
     id="defs4144" /><g
     inkscape:label="Layer 1"
     inkscape:groupmode="layer"
     id="layer1"
     transform="translate(-0.28470937,-0.59306887)"><g
       inkscape:label="Layer 1"
       id="layer1-9"
       transform="translate(-8.8996609,-12.490688)"><g
         style="opacity:1;fill:#333333;fill-opacity:1"
         id="g273"
         transform="matrix(0.12643635,0,0,0.12643635,8.8913109,13.083706)"><g
           id="g262"
           style="fill:#333333;fill-opacity:1">
	<path
   class="st0"
   d="M 446.078,252.263 C 454.449,152.487 311.679,73.097 270.016,64.591 203.781,51.072 195.67,55.127 155.12,25.387 145.656,-5.707 87.539,-11.109 74.019,25.387 13.194,32.142 1.302,45.646 2.383,67.291 c 1.35,27.031 39.667,49.698 62.176,74.345 24.877,27.245 60.136,71.098 88.49,106.096 -13.709,3.722 -40.875,2.336 -55.772,-1.26 -1.75,-6.264 -7.437,-10.882 -14.252,-10.882 -8.213,0 -14.867,6.653 -14.867,14.866 0,8.206 6.654,14.874 14.867,14.874 3.837,0 7.301,-1.496 9.939,-3.889 14.747,2.265 37.422,2.97 42.523,3.62 6.894,0.879 7.88,9.512 -9.294,15.096 -12.727,4.15 -28.556,3.421 -39.16,2.272 -2.673,-2.558 -6.276,-4.15 -10.268,-4.15 -8.217,0 -14.87,6.653 -14.87,14.866 0,8.213 6.653,14.866 14.87,14.866 6.078,0 11.29,-3.658 13.591,-8.886 18.774,0.309 50.189,-3.057 60.355,-9.242 12.96,-7.889 -8.962,19.079 -24.79,20.917 -1.524,-0.523 -3.132,-0.871 -4.835,-0.871 -8.209,0 -14.866,6.653 -14.866,14.866 0,8.197 6.657,14.866 14.866,14.866 7.706,0 13.967,-5.893 14.716,-13.393 11.939,-8.76 29.612,-27.372 42.772,-48.629 14.925,15.507 32.084,29.375 51.868,41.208 -6.918,20.164 -13.967,36.891 -19.166,40.091 -13.662,8.404 -49.31,13.995 -65.973,12.64 -2.479,-4.436 -7.049,-7.595 -12.494,-8.015 -8.649,-0.673 -16.2,5.798 -16.869,14.43 -0.67,8.649 5.793,16.213 14.438,16.886 5.382,0.411 10.332,-1.941 13.473,-5.861 16.061,-0.388 44.356,-5.662 50.454,-6.194 7.61,-0.665 10.683,8.388 -6.471,18.407 -13.61,7.936 -32.25,10.683 -43.845,11.768 -2.123,-1.37 -4.566,-2.312 -7.263,-2.518 -8.649,-0.665 -16.2,5.797 -16.869,14.438 -0.67,8.648 5.793,16.204 14.438,16.877 7.533,0.578 14.224,-4.253 16.268,-11.223 19.785,-3.454 55.9,-15.112 65.886,-24.615 11.417,-10.866 -3.338,18.968 -18.98,27.086 -0.658,-0.135 -1.303,-0.301 -1.992,-0.356 -8.649,-0.673 -16.201,5.789 -16.87,14.43 -0.673,8.649 5.79,16.204 14.442,16.877 8.641,0.673 16.193,-5.797 16.866,-14.438 0.055,-0.729 -0.008,-1.434 -0.048,-2.147 13.924,-16.292 33.637,-51.226 40.13,-84.206 1.707,-8.665 4.321,-19.111 7.338,-30.278 12.858,5.845 26.659,10.945 41.457,15.222 6.202,14.55 19.317,24.347 34.254,26.54 30.754,4.522 95.887,-29.628 102.176,-25.977 6.305,3.659 -36.844,36.939 -59.226,40.487 -15.776,2.503 -51.06,-0.586 -70.528,-2.63 -2.324,-6.55 -8.514,-11.27 -15.86,-11.27 -9.334,0 -16.897,7.564 -16.897,16.893 0,9.33 7.563,16.902 16.897,16.902 4.879,0 9.239,-2.099 12.324,-5.41 l 44.728,8.53 -49.144,32.883 c -2.368,-1.259 -5.029,-2.043 -7.9,-2.043 -9.334,0 -16.897,7.564 -16.897,16.894 0,9.33 7.564,16.901 16.897,16.901 8.186,0 15.009,-5.83 16.557,-13.559 18.418,-12.292 55.416,-36.242 61.253,-34.365 5.156,1.655 -11.959,30.167 -24.286,49.492 -0.713,-0.087 -1.418,-0.213 -2.158,-0.213 -9.334,0 -16.898,7.564 -16.898,16.893 0,9.33 7.564,16.902 16.898,16.902 9.33,0 16.893,-7.572 16.893,-16.902 0,-2.044 -0.42,-3.968 -1.077,-5.774 11.048,-17.059 28.298,-43.045 36.796,-52.462 13.052,-14.47 109.945,-104.06 115.014,-132.018 5.716,-31.52 -10.805,-52.531 -62.53,-52.579 z M 113.219,103.787 c -14.929,0 -27.035,-12.102 -27.035,-27.039 0,-14.929 12.106,-27.031 27.035,-27.031 14.929,0 27.035,12.102 27.035,27.031 0,14.937 -12.106,27.039 -27.035,27.039 z"
   style="fill:#333333;fill-opacity:1"
   id="path258" />
	
</g></g><text
         xml:space="preserve"
         style="font-style:normal;font-variant:normal;font-weight:normal;font-stretch:normal;font-size:35.2632px;line-height:0.9;font-family:'Sigmar One';-inkscape-font-specification:'Sigmar One';white-space:pre;inline-size:0;fill:#4e5f70;stroke-width:3.56994;stroke-linecap:round;stroke-linejoin:round;stop-color:#000000"
         x="426.68643"
         y="225.33659"
         id="text487" /><text
         xml:space="preserve"
         style="font-style:normal;font-variant:normal;font-weight:normal;font-stretch:normal;font-size:35.2778px;line-height:1;font-family:'Sigmar One';-inkscape-font-specification:'Sigmar One';text-align:start;text-anchor:start;fill:#333333;fill-opacity:1;stroke-width:2;stroke-linecap:round;stroke-linejoin:round;stop-color:#000000"
         x="86.40274"
         y="39.344105"
         id="text1593"><tspan
           sodipodi:role="line"
           style="font-size:35.2778px;text-align:start;text-anchor:start;fill:#333333;fill-opacity:1;stroke-width:2"
           x="86.40274"
           y="39.344105"
           id="tspan1595">AME</tspan><tspan
           sodipodi:role="line"
           style="font-size:35.2778px;text-align:start;text-anchor:start;fill:#333333;fill-opacity:1;stroke-width:2"
           x="86.40274"
           y="74.621902"
           id="tspan1599">NOTE</tspan></text></g><ellipse
       style="fill:#333333;fill-opacity:1;stroke-width:2.13935;stroke-linecap:round;stroke-linejoin:round;stop-color:#000000"
       id="path7350"
       cx="15.230165"
       cy="8.2560778"
       rx="2.6663973"
       ry="1.1621131"
       transform="matrix(0.99038225,0.13835825,-0.09645316,0.99533752,0,0)" /></g><style
     type="text/css"
     id="style256">
	.st0{fill:#4B4B4B;}
</style></svg>
